<svg class="b-header_logo" id="brand-logo" fill="none" aria-label="Smartwool" viewBox="0 0 176 48" height="48" width="176" xmlns="http://www.w3.org/2000/svg">
                    <path fill="#E55C1E" d="M165.094 0H163.277V1.81506H165.094V0Z"></path>
                    <path fill="#70A5BE" d="M166.911 1.81396H165.094V3.62539H166.911V1.81396Z"></path>
                    <path fill="#4ABCCA" d="M165.094 3.62646H163.277V5.44243H165.094V3.62646Z"></path>
                    <path fill="#A1AB2A" d="M165.094 7.25635H163.277V9.0705H165.094V7.25635Z"></path>
                    <path fill="#1E2E4A" d="M165.094 9.0708H163.277V10.885H165.094V9.0708Z"></path>
                    <path fill="#F5A844" d="M166.911 9.0708H165.094V10.885H166.911V9.0708Z"></path>
                    <path fill="#8AB2DB" d="M165.094 10.8853H163.277V12.6994H165.094V10.8853Z"></path>
                    <path fill="#AB3F6F" d="M166.911 10.8853H165.094V12.6994H166.911V10.8853Z"></path>
                    <path fill="#E55C1E" d="M165.094 12.6987H163.277V14.5111H165.094V12.6987Z"></path>
                    <path fill="#0E90CB" d="M166.911 12.6987H165.094V14.5111H166.911V12.6987Z"></path>
                    <path fill="#A1AB2A" d="M165.094 14.5117H163.277V16.3268H165.094V14.5117Z"></path>
                    <path fill="#38A73B" d="M166.911 14.5117H165.094V16.3268H166.911V14.5117Z"></path>
                    <path fill="#4ABCCA" d="M165.094 16.3262H163.277V18.1394H165.094V16.3262Z"></path>
                    <path fill="#DF2A27" d="M166.911 16.3262H165.094V18.1394H166.911V16.3262Z"></path>
                    <path fill="#4D4D42" d="M165.094 18.1396H163.277V19.9547H165.094V18.1396Z"></path>
                    <path fill="#A1AB2A" d="M166.911 18.1396H165.094V19.9547H166.911V18.1396Z"></path>
                    <path fill="#0E90CB" d="M161.461 18.1396H159.642V19.9547H161.461V18.1396Z"></path>
                    <path fill="#A1AB2A" d="M156.007 21.7686H154.19V23.5836H156.007V21.7686Z"></path>
                    <path fill="#A1AB2A" d="M163.277 18.1396H161.46V19.9547H163.277V18.1396Z"></path>
                    <path fill="#078054" d="M159.643 18.1396H157.824V19.9547H159.643V18.1396Z"></path>
                    <path fill="#008096" d="M157.824 19.9551H156.007V21.7692H157.824V19.9551Z"></path>
                    <path fill="#078054" d="M174.184 19.9551H172.364V21.7692H174.184V19.9551Z"></path>
                    <path fill="#E55C1E" d="M156.007 23.584H154.19V25.3981H156.007V23.584Z"></path>
                    <path fill="#008096" d="M156.007 25.3984H154.19V27.2126H156.007V25.3984Z"></path>
                    <path fill="#F5A844" d="M156.007 27.2119H154.19V29.027H156.007V27.2119Z"></path>
                    <path fill="#E55C1E" d="M157.824 29.0273H156.007V30.8406H157.824V29.0273Z"></path>
                    <path fill="#008096" d="M176 21.7686H174.184V23.5836H176V21.7686Z"></path>
                    <path fill="#1E2E4A" d="M176 23.584H174.184V25.3981H176V23.584Z"></path>
                    <path fill="#89B79A" d="M176 25.3984H174.184V27.2126H176V25.3984Z"></path>
                    <path fill="#AB3F6F" d="M176 27.2119H174.184V29.027H176V27.2119Z"></path>
                    <path fill="#F5A844" d="M174.184 29.0273H172.364V30.8406H174.184V29.0273Z"></path>
                    <path fill="#8AB2DB" d="M170.546 18.1396H168.728V19.9547H170.546V18.1396Z"></path>
                    <path fill="#38A73B" d="M172.364 18.1396H170.545V19.9547H172.364V18.1396Z"></path>
                    <path fill="#008096" d="M168.727 18.1396H166.911V19.9547H168.727V18.1396Z"></path>
                    <path fill="#DF2A27" d="M165.094 19.9551H163.277V21.7692H165.094V19.9551Z"></path>
                    <path fill="#E12369" d="M166.911 19.9551H165.094V21.7692H166.911V19.9551Z"></path>
                    <path fill="#F5A844" d="M161.461 19.9551H159.642V21.7692H161.461V19.9551Z"></path>
                    <path fill="#1E2E4A" d="M163.277 19.9551H161.46V21.7692H163.277V19.9551Z"></path>
                    <path fill="#A1AB2A" d="M170.546 19.9551H168.728V21.7692H170.546V19.9551Z"></path>
                    <path fill="#B3331E" d="M168.727 19.9551H166.911V21.7692H168.727V19.9551Z"></path>
                    <path fill="#B6262B" d="M165.094 21.7686H163.277V23.5836H165.094V21.7686Z"></path>
                    <path fill="#B72452" d="M166.911 21.7686H165.094V23.5836H166.911V21.7686Z"></path>
                    <path fill="#078054" d="M161.461 21.7686H159.642V23.5836H161.461V21.7686Z"></path>
                    <path fill="#89B79A" d="M163.277 21.7686H161.46V23.5836H163.277V21.7686Z"></path>
                    <path fill="#7FC8BF" d="M170.546 21.7686H168.728V23.5836H170.546V21.7686Z"></path>
                    <path fill="#AB3F6F" d="M168.727 21.7686H166.911V23.5836H168.727V21.7686Z"></path>
                    <path fill="#70A5BE" d="M165.094 23.584H163.277V25.3981H165.094V23.584Z"></path>
                    <path fill="#DF2A27" d="M166.911 23.584H165.094V25.3981H166.911V23.584Z"></path>
                    <path fill="#AB3F6F" d="M161.461 23.584H159.642V25.3981H161.461V23.584Z"></path>
                    <path fill="#A1AB2A" d="M163.277 23.584H161.46V25.3981H163.277V23.584Z"></path>
                    <path fill="#F5A844" d="M170.546 23.584H168.728V25.3981H170.546V23.584Z"></path>
                    <path fill="#0E90CB" d="M168.727 23.584H166.911V25.3981H168.727V23.584Z"></path>
                    <path fill="#F5A844" d="M165.094 25.3984H163.277V27.2126H165.094V25.3984Z"></path>
                    <path fill="#A1AB2A" d="M166.911 25.3984H165.094V27.2126H166.911V25.3984Z"></path>
                    <path fill="#E55C1E" d="M161.461 25.3984H159.642V27.2126H161.461V25.3984Z"></path>
                    <path fill="#EB7880" d="M163.277 25.3984H161.46V27.2126H163.277V25.3984Z"></path>
                    <path fill="#4C153E" d="M170.546 25.3984H168.728V27.2126H170.546V25.3984Z"></path>
                    <path fill="#7FC8BF" d="M168.727 25.3984H166.911V27.2126H168.727V25.3984Z"></path>
                    <path fill="#1E2E4A" d="M165.094 27.2119H163.277V29.027H165.094V27.2119Z"></path>
                    <path fill="#38A73B" d="M166.911 27.2119H165.094V29.027H166.911V27.2119Z"></path>
                    <path fill="#4C153E" d="M161.461 27.2119H159.642V29.027H161.461V27.2119Z"></path>
                    <path fill="#8AB2DB" d="M163.277 27.2119H161.46V29.027H163.277V27.2119Z"></path>
                    <path fill="#008096" d="M170.546 27.2119H168.728V29.027H170.546V27.2119Z"></path>
                    <path fill="#6C2713" d="M168.727 27.2119H166.911V29.027H168.727V27.2119Z"></path>
                    <path fill="#7FC8BF" d="M165.094 29.0273H163.277V30.8406H165.094V29.0273Z"></path>
                    <path fill="#E55C1E" d="M166.911 29.0273H165.094V30.8406H166.911V29.0273Z"></path>
                    <path fill="#0E90CB" d="M161.461 29.0273H159.642V30.8406H161.461V29.0273Z"></path>
                    <path fill="#6C2713" d="M163.277 29.0273H161.46V30.8406H163.277V29.0273Z"></path>
                    <path fill="#A1AB2A" d="M170.546 29.0273H168.728V30.8406H170.546V29.0273Z"></path>
                    <path fill="#89B79A" d="M168.727 29.0273H166.911V30.8406H168.727V29.0273Z"></path>
                    <path fill="#38A73B" d="M165.094 30.8403H163.277V32.6536H165.094V30.8403Z"></path>
                    <path fill="#008096" d="M166.911 30.8403H165.094V32.6536H166.911V30.8403Z"></path>
                    <path fill="#1E2E4A" d="M161.461 30.8403H159.642V32.6536H161.461V30.8403Z"></path>
                    <path fill="#F5A844" d="M161.461 32.6538H159.642V34.4689H161.461V32.6538Z"></path>
                    <path fill="#6C2713" d="M161.461 34.4688H159.642V36.282H161.461V34.4688Z"></path>
                    <path fill="#E55C1E" d="M161.461 36.2817H159.642V38.095H161.461V36.2817Z"></path>
                    <path fill="#4C153E" d="M161.461 38.0952H159.642V39.9103H161.461V38.0952Z"></path>
                    <path fill="#008096" d="M161.461 39.9102H159.642V41.7252H161.461V39.9102Z"></path>
                    <path fill="#38A73B" d="M161.461 41.7251H159.642V43.5383H161.461V41.7251Z"></path>
                    <path fill="#4D4D42" d="M161.461 43.5386H159.642V45.3536H161.461V43.5386Z"></path>
                    <path fill="#A1AB2A" d="M159.643 43.5386H157.824V45.3536H159.643V43.5386Z"></path>
                    <path fill="#AB3F6F" d="M170.546 32.6538H168.728V34.4689H170.546V32.6538Z"></path>
                    <path fill="#A1AB2A" d="M170.546 34.4688H168.728V36.282H170.546V34.4688Z"></path>
                    <path fill="#078054" d="M170.546 36.2817H168.728V38.095H170.546V36.2817Z"></path>
                    <path fill="#7FC8BF" d="M170.546 38.0952H168.728V39.9103H170.546V38.0952Z"></path>
                    <path fill="#6C2713" d="M170.546 39.9102H168.728V41.7252H170.546V39.9102Z"></path>
                    <path fill="#8AB2DB" d="M170.546 41.7251H168.728V43.5383H170.546V41.7251Z"></path>
                    <path fill="#E55C1E" d="M170.546 43.5386H168.728V45.3536H170.546V43.5386Z"></path>
                    <path fill="#A1AB2A" d="M172.364 43.5386H170.545V45.3536H172.364V43.5386Z"></path>
                    <path fill="#A1AB2A" d="M163.277 30.8403H161.46V32.6536H163.277V30.8403Z"></path>
                    <path fill="#70A5BE" d="M170.546 30.8403H168.728V32.6536H170.546V30.8403Z"></path>
                    <path fill="#F5A844" d="M168.727 30.8403H166.911V32.6536H168.727V30.8403Z"></path>
                    <path fill="#F5A844" d="M161.461 7.25635H159.642V9.0705H161.461V7.25635Z"></path>
                    <path fill="#38A73B" d="M170.546 7.25635H168.728V9.0705H170.546V7.25635Z"></path>
                    <path fill="#008096" d="M159.643 5.44141H157.824V7.25647H159.643V5.44141Z"></path>
                    <path fill="#AB3F6F" d="M172.364 5.44141H170.545V7.25647H172.364V5.44141Z"></path>
                    <path fill="black" d="M35.211 18.6255C33.5218 18.6255 31.3366 19.0724 30.1079 21.637C29.094 19.4176 27.1882 18.6255 25.2506 18.6255C23.2501 18.6255 21.4999 19.7047 20.669 21.6669V18.9743H16.8865V35.0101H20.669V26.8014C20.76 23.2876 22.4519 21.9231 24.1748 21.9231C25.9896 21.9231 27.0654 23.3812 27.0654 26.1683V35.011H30.816V26.8023C30.9088 23.2885 32.599 21.924 34.3218 21.924C36.1375 21.924 37.2115 23.3821 37.2115 26.1692V35.0119H40.9931V26.1392C40.9922 21.5116 39.2411 18.6255 35.211 18.6255Z"></path>
                    <path fill="black" d="M55.6909 21.3526C54.4313 19.5148 52.4927 18.6255 50.4013 18.6255C45.6349 18.6255 42.7471 22.3955 42.7471 26.9286C42.7471 31.618 45.7587 35.3571 50.3721 35.3571C52.6456 35.3571 54.5842 34.3433 55.6909 32.5982V35.0101H59.4753V18.9743H55.6909V21.3526ZM51.1394 32.0931C48.3107 32.0931 46.5587 29.8102 46.5587 26.9586C46.5587 24.2042 48.1887 21.8904 51.0493 21.8904C53.847 21.8904 55.7838 24.0125 55.7838 27.1176C55.7838 30.2871 53.7214 32.0931 51.1394 32.0931Z"></path>
                    <path fill="black" d="M69.2517 18.9404C67.9875 19.0485 66.635 19.5363 65.6548 21.4767V18.974H61.936V35.0097H65.7176V27.5942C65.7176 23.1583 67.9502 22.3198 69.4118 22.0554C69.9397 21.9609 70.4812 21.9419 71.0637 21.9419V18.9604V18.9295C70.9099 18.9295 69.4501 18.9186 69.2517 18.9404Z"></path>
                    <path fill="black" d="M79.214 29.1154C79.366 29.4625 79.4288 30.0975 79.4288 30.4463C79.4288 31.4274 78.8144 32.0924 77.8925 32.0924C76.7839 32.0924 76.3825 31.3302 76.3825 30.3509V21.9542H80.6165V18.9736H76.3825V14.6958H72.6255L72.6028 21.9542V29.8104C72.6028 34.2172 75.1566 35.3573 77.7396 35.3573C81.0888 35.3573 82.657 33.2652 82.657 30.9214C82.657 30.638 82.596 29.7168 82.3211 29.1154H79.214Z"></path>
                    <path fill="black" d="M101.993 18.9746L98.6408 29.716L95.4426 19.4188H92.5803L89.4149 29.716L86.031 18.9746H81.9736L87.57 35.0095H90.9211L94.0292 24.9004L97.1009 35.0095H100.483L106.08 18.9746H101.993Z"></path>
                    <path fill="black" d="M114.034 18.6255C109.545 18.6255 105.611 22.3637 105.611 26.9904C105.611 31.6498 109.545 35.3571 114.034 35.3571C118.584 35.3571 122.492 31.6171 122.492 26.9904C122.492 22.3982 118.584 18.6255 114.034 18.6255ZM114.034 32.0295C111.42 32.0295 109.423 29.8102 109.423 26.9904C109.423 24.1706 111.419 21.954 114.034 21.954C116.681 21.954 118.677 24.2042 118.677 26.9904C118.677 29.8102 116.681 32.0295 114.034 32.0295Z"></path>
                    <path fill="black" d="M132.389 18.6255C127.901 18.6255 123.967 22.3637 123.967 26.9904C123.967 31.6498 127.901 35.3571 132.389 35.3571C136.941 35.3571 140.847 31.6171 140.847 26.9904C140.847 22.3982 136.941 18.6255 132.389 18.6255ZM132.424 32.0295C129.811 32.0295 127.81 29.8102 127.81 26.9904C127.81 24.1706 129.811 21.954 132.424 21.954C135.067 21.954 137.065 24.2042 137.065 26.9904C137.065 29.8102 135.067 32.0295 132.424 32.0295Z"></path>
                    <path fill="black" d="M146.436 12.6001H142.652V35.0095H146.436V12.6001Z"></path>
                    <path fill="black" d="M10.1844 22.6312L7.43849 21.592C5.1213 20.7435 4.90833 19.6116 4.90833 18.8594C4.90833 17.1288 6.34178 16.2504 8.07831 16.2504C9.63372 16.2504 11.1291 16.8799 11.8599 19.1101L15.1537 17.6957C14.1789 14.5852 11.6478 12.6675 8.07922 12.6675C4.17567 12.6675 1.00478 15.0558 1.00478 18.9203C1.00478 20.7753 1.76838 23.5706 6.25168 25.1113L8.99481 26.0851C10.8852 26.7773 11.8007 27.7176 11.8007 29.0048C11.8007 30.7663 10.1862 31.8037 7.95817 31.8037C5.64098 31.8037 3.99365 30.452 3.53585 28.5679L0 29.3846C0.579753 32.9347 3.87169 35.3557 8.04919 35.3557C12.1675 35.3557 15.6706 33.0919 15.6706 28.8504C15.6433 26.6829 14.33 23.9821 10.1844 22.6312Z"></path>
                    <path fill="black" d="M150.082 31.186C148.948 31.186 148.044 32.0954 148.044 33.23C148.044 34.381 148.948 35.2931 150.082 35.2931C151.227 35.2931 152.109 34.381 152.109 33.23C152.108 32.0954 151.227 31.186 150.082 31.186ZM150.093 34.857C149.198 34.857 148.551 34.133 148.551 33.23C148.551 32.3316 149.198 31.593 150.081 31.593C150.96 31.593 151.598 32.3316 151.598 33.2382C151.599 34.133 150.96 34.857 150.093 34.857Z"></path>
                    <path fill="black" d="M149.373 32.1641H150.162C150.402 32.1641 150.602 32.2304 150.733 32.3621C150.844 32.4784 150.903 32.6428 150.903 32.849V32.8654C150.903 33.177 150.755 33.3786 150.521 33.4758L150.963 34.2589H150.47L150.081 33.5694H149.813V34.2589H149.373V32.1641ZM150.133 33.1851C150.351 33.1851 150.473 33.0616 150.473 32.8708V32.8681C150.473 32.661 150.34 32.5529 150.125 32.5529H149.813V33.1851H150.133Z"></path>
                    <path fill="#A1AB2A" d="M70.3857 44.6459C69.9034 44.1263 69.6631 43.4631 69.6631 42.6555C69.6631 41.8488 69.9015 41.1884 70.3803 40.6751C70.859 40.1619 71.467 39.9048 72.2051 39.9048C72.9423 39.9048 73.5047 40.2082 73.8925 40.815V39.982H75.2513V45.3854C75.2513 46.1539 75.0256 46.7817 74.5723 47.2686C74.12 47.7564 73.4838 47.9999 72.6665 47.9999C71.8474 47.9999 71.1985 47.83 70.7161 47.4912C70.2337 47.1523 69.9607 46.6699 69.8961 46.0431H71.2349C71.3186 46.282 71.4806 46.471 71.7191 46.61C71.9575 46.749 72.2588 46.818 72.621 46.818C72.9832 46.818 73.2854 46.6981 73.5284 46.4601C73.7714 46.2212 73.8925 45.8623 73.8925 45.3845V44.4452C73.4856 45.0974 72.9186 45.4235 72.1951 45.4235C71.4715 45.4235 70.8681 45.1656 70.3857 44.6459ZM73.4656 43.8229C73.7505 43.5422 73.8925 43.1561 73.8925 42.6655C73.8925 42.175 73.7505 41.7889 73.4656 41.5082C73.1807 41.2275 72.8485 41.0876 72.4663 41.0876C72.084 41.0876 71.7527 41.2266 71.4715 41.5036C71.1903 41.7807 71.0501 42.1659 71.0501 42.6564C71.0501 43.147 71.1921 43.5349 71.477 43.8183C71.7618 44.1027 72.0922 44.2444 72.4717 44.2444C72.8504 44.2435 73.1807 44.1036 73.4656 43.8229Z"></path>
                    <path fill="#A1AB2A" d="M76.9304 44.66C76.4062 44.1504 76.144 43.4818 76.144 42.6551C76.144 41.8293 76.4089 41.1635 76.9395 40.6602C77.4701 40.1569 78.1281 39.9053 78.9136 39.9053C79.6999 39.9053 80.3579 40.1569 80.8885 40.6602C81.4182 41.1635 81.6831 41.8293 81.6831 42.6551C81.6831 43.4818 81.4173 44.1495 80.8831 44.66C80.3488 45.1697 79.6881 45.4249 78.899 45.4249C78.1099 45.4249 77.4537 45.1697 76.9304 44.66ZM78.899 44.273C79.2804 44.273 79.6089 44.1322 79.8838 43.8515C80.1595 43.5708 80.2961 43.1738 80.2961 42.6597C80.2961 42.1464 80.1604 41.7512 79.8892 41.4741C79.618 41.1971 79.2895 41.0572 78.9045 41.0572C78.5195 41.0572 78.1946 41.1962 77.9297 41.4741C77.6649 41.7512 77.532 42.1491 77.532 42.6651C77.532 43.1811 77.6649 43.579 77.9297 43.8561C78.1946 44.1341 78.5177 44.273 78.899 44.273Z"></path>
                    <path fill="#A1AB2A" d="M87.3979 39.9826V41.0963H86.5442V45.3478H85.1862V41.0963H84.6038V39.9826H85.1862V39.6819C85.1862 39.0369 85.3573 38.5654 85.6996 38.2684C86.0427 37.9713 86.5833 37.8232 87.3196 37.8232V38.9661C87.0347 38.9661 86.8354 39.0215 86.7189 39.1305C86.6024 39.2404 86.5442 39.4248 86.5442 39.6828V39.9835H87.3979V39.9826Z"></path>
                    <path fill="#A1AB2A" d="M88.489 44.6459C88.0066 44.1263 87.7664 43.4631 87.7664 42.6555C87.7664 41.8488 88.0048 41.1884 88.4835 40.6751C88.9623 40.1619 89.5702 39.9048 90.3084 39.9048C91.0456 39.9048 91.608 40.2082 91.9957 40.815V39.982H93.3546V45.3472H91.9957V44.4461C91.5889 45.0983 91.0219 45.4245 90.2983 45.4245C89.5748 45.4245 88.9714 45.1656 88.489 44.6459ZM91.5698 43.8229C91.8547 43.5422 91.9966 43.1561 91.9966 42.6655C91.9966 42.175 91.8547 41.7889 91.5698 41.5082C91.2849 41.2275 90.9527 41.0876 90.5705 41.0876C90.1882 41.0876 89.8569 41.2266 89.5757 41.5036C89.2945 41.7807 89.1543 42.1659 89.1543 42.6564C89.1543 43.147 89.2963 43.5349 89.5812 43.8183C89.866 44.1027 90.1964 44.2444 90.5759 44.2444C90.9536 44.2435 91.2849 44.1036 91.5698 43.8229Z"></path>
                    <path fill="#A1AB2A" d="M95.7902 39.9825V40.9318C96.1524 40.2478 96.6758 39.9053 97.362 39.9053V41.2997H97.0216C96.6148 41.2997 96.3072 41.4015 96.0997 41.605C95.8931 41.8085 95.7893 42.1591 95.7893 42.6551V45.3477H94.4214V39.9825H95.7902Z"></path>
                    <path fill="#A1AB2A" d="M99.186 44.5727C99.186 44.7926 99.1095 44.9761 98.9575 45.1251C98.8065 45.2732 98.6217 45.3476 98.4051 45.3476C98.1885 45.3476 98.0056 45.2732 97.8563 45.1251C97.7079 44.977 97.6333 44.7926 97.6333 44.5727C97.6333 44.3538 97.707 44.1694 97.8563 44.0204C98.0046 43.8723 98.1876 43.7979 98.4051 43.7979C98.6217 43.7979 98.8065 43.8723 98.9575 44.0204C99.1095 44.1694 99.186 44.3529 99.186 44.5727Z"></path>
                    <path fill="#A1AB2A" d="M104.948 39.9826V41.0963H104.094V45.3478H102.736V41.0963H102.154V39.9826H102.736V39.6819C102.736 39.0369 102.907 38.5654 103.25 38.2684C103.593 37.9713 104.133 37.8232 104.87 37.8232V38.9661C104.585 38.9661 104.385 39.0215 104.269 39.1305C104.152 39.2404 104.094 39.4248 104.094 39.6828V39.9835H104.948V39.9826Z"></path>
                    <path fill="#A1AB2A" d="M107.965 45.4249C107.183 45.4249 106.545 45.1715 106.054 44.6646C105.562 44.1577 105.316 43.4882 105.316 42.6551C105.316 41.8221 105.564 41.1553 106.058 40.6556C106.553 40.1551 107.193 39.9053 107.979 39.9053C108.765 39.9053 109.41 40.1496 109.914 40.6366C110.419 41.1244 110.671 41.7748 110.671 42.5879C110.671 42.775 110.658 42.9495 110.632 43.1112H106.713C106.744 43.4591 106.874 43.7407 107.101 43.9533C107.327 44.1668 107.614 44.273 107.964 44.273C108.435 44.273 108.785 44.0795 109.012 43.6916H110.487C110.332 44.2013 110.031 44.6183 109.585 44.9407C109.139 45.2632 108.599 45.4249 107.965 45.4249ZM108.863 41.3769C108.621 41.1644 108.327 41.0572 107.985 41.0572C107.643 41.0572 107.356 41.1635 107.127 41.3769C106.897 41.5895 106.759 41.8739 106.714 42.2291H109.256C109.236 41.8739 109.105 41.5895 108.863 41.3769Z"></path>
                    <path fill="#A1AB2A" d="M114.019 45.4249C113.237 45.4249 112.599 45.1715 112.108 44.6646C111.616 44.1577 111.371 43.4882 111.371 42.6551C111.371 41.8221 111.618 41.1553 112.112 40.6556C112.607 40.1551 113.247 39.9053 114.033 39.9053C114.819 39.9053 115.464 40.1496 115.969 40.6366C116.473 41.1244 116.725 41.7748 116.725 42.5879C116.725 42.775 116.712 42.9495 116.686 43.1112H112.767C112.799 43.4591 112.928 43.7407 113.155 43.9533C113.381 44.1668 113.669 44.273 114.018 44.273C114.49 44.273 114.839 44.0795 115.067 43.6916H116.541C116.386 44.2013 116.085 44.6183 115.639 44.9407C115.193 45.2632 114.653 45.4249 114.019 45.4249ZM114.916 41.3769C114.674 41.1644 114.38 41.0572 114.038 41.0572C113.696 41.0572 113.409 41.1635 113.18 41.3769C112.951 41.5895 112.812 41.8739 112.768 42.2291H115.31C115.291 41.8739 115.159 41.5895 114.916 41.3769Z"></path>
                    <path fill="#A1AB2A" d="M117.61 45.3479V38.1821H118.978V45.3479H117.61Z"></path>
                    <path fill="#A1AB2A" d="M123.105 44.6459C122.623 44.1263 122.382 43.4631 122.382 42.6555C122.382 41.8488 122.621 41.1884 123.1 40.6751C123.578 40.1619 124.186 39.9048 124.924 39.9048C125.662 39.9048 126.224 40.2082 126.612 40.815V39.982H127.971V45.3854C127.971 46.1539 127.745 46.7817 127.292 47.2686C126.839 47.7564 126.203 47.9999 125.386 47.9999C124.567 47.9999 123.918 47.83 123.435 47.4912C122.953 47.1523 122.68 46.6699 122.616 46.0431H123.955C124.039 46.282 124.201 46.471 124.439 46.61C124.678 46.749 124.979 46.818 125.341 46.818C125.703 46.818 126.006 46.6981 126.249 46.4601C126.492 46.2212 126.613 45.8623 126.613 45.3845V44.4452C126.206 45.0974 125.639 45.4235 124.915 45.4235C124.192 45.4235 123.587 45.1656 123.105 44.6459ZM126.185 43.8229C126.47 43.5422 126.612 43.1561 126.612 42.6655C126.612 42.175 126.47 41.7889 126.185 41.5082C125.9 41.2275 125.568 41.0876 125.186 41.0876C124.803 41.0876 124.472 41.2266 124.191 41.5036C123.91 41.7807 123.769 42.1659 123.769 42.6564C123.769 43.147 123.911 43.5349 124.196 43.8183C124.481 44.1027 124.811 44.2444 125.191 44.2444C125.57 44.2435 125.9 44.1036 126.185 43.8229Z"></path>
                    <path fill="#A1AB2A" d="M129.456 44.66C128.932 44.1504 128.67 43.4818 128.67 42.6551C128.67 41.8293 128.935 41.1635 129.465 40.6602C129.996 40.1569 130.654 39.9053 131.439 39.9053C132.226 39.9053 132.884 40.1569 133.414 40.6602C133.944 41.1635 134.209 41.8293 134.209 42.6551C134.209 43.4818 133.943 44.1495 133.409 44.66C132.874 45.1697 132.214 45.4249 131.425 45.4249C130.636 45.4249 129.979 45.1697 129.456 44.66ZM131.425 44.273C131.806 44.273 132.135 44.1322 132.409 43.8515C132.685 43.5708 132.822 43.1738 132.822 42.6597C132.822 42.1464 132.686 41.7512 132.415 41.4741C132.144 41.1971 131.815 41.0572 131.43 41.0572C131.045 41.0572 130.72 41.1962 130.455 41.4741C130.191 41.7512 130.058 42.1491 130.058 42.6651C130.058 43.1811 130.191 43.579 130.455 43.8561C130.72 44.1341 131.043 44.273 131.425 44.273Z"></path>
                    <path fill="#A1AB2A" d="M135.713 44.66C135.189 44.1504 134.927 43.4818 134.927 42.6551C134.927 41.8293 135.192 41.1635 135.722 40.6602C136.253 40.1569 136.911 39.9053 137.696 39.9053C138.483 39.9053 139.141 40.1569 139.671 40.6602C140.201 41.1635 140.466 41.8293 140.466 42.6551C140.466 43.4818 140.2 44.1495 139.666 44.66C139.132 45.1697 138.471 45.4249 137.682 45.4249C136.894 45.4249 136.236 45.1697 135.713 44.66ZM137.682 44.273C138.063 44.273 138.392 44.1322 138.666 43.8515C138.942 43.5708 139.079 43.1738 139.079 42.6597C139.079 42.1464 138.943 41.7512 138.672 41.4741C138.401 41.1971 138.072 41.0572 137.687 41.0572C137.302 41.0572 136.977 41.1962 136.712 41.4741C136.448 41.7521 136.315 42.1491 136.315 42.6651C136.315 43.1811 136.448 43.579 136.712 43.8561C136.977 44.1341 137.3 44.273 137.682 44.273Z"></path>
                    <path fill="#A1AB2A" d="M141.897 44.6455C141.415 44.1259 141.175 43.4627 141.175 42.6551C141.175 41.8484 141.413 41.188 141.892 40.6747C142.371 40.1615 142.979 39.9044 143.717 39.9044C144.454 39.9044 145.016 40.2078 145.404 40.8146V38.1802H146.763V45.3459H145.404V44.4448C144.997 45.097 144.43 45.4232 143.707 45.4232C142.983 45.4232 142.38 45.1652 141.897 44.6455ZM144.977 43.8225C145.262 43.5418 145.404 43.1557 145.404 42.6651C145.404 42.1746 145.262 41.7885 144.977 41.5078C144.692 41.2271 144.36 41.0872 143.978 41.0872C143.596 41.0872 143.264 41.2262 142.983 41.5032C142.702 41.7803 142.562 42.1655 142.562 42.656C142.562 43.1466 142.704 43.5345 142.989 43.8179C143.274 44.1023 143.604 44.244 143.983 44.244C144.362 44.2431 144.692 44.1032 144.977 43.8225Z"></path>
                    <path fill="#A1AB2A" d="M149.073 44.5727C149.073 44.7926 148.997 44.9761 148.845 45.1251C148.693 45.2732 148.509 45.3476 148.292 45.3476C148.075 45.3476 147.893 45.2732 147.743 45.1251C147.594 44.977 147.52 44.7926 147.52 44.5727C147.52 44.3538 147.594 44.1694 147.743 44.0204C147.892 43.8723 148.075 43.7979 148.292 43.7979C148.509 43.7979 148.693 43.8723 148.845 44.0204C148.997 44.1694 149.073 44.3529 149.073 44.5727Z"></path>
                    <path fill="#A1AB2A" d="M147.567 38.2168H148.098V38.3331H147.901V38.9217H147.766V38.3331H147.567V38.2168ZM149.004 38.2168V38.9217H148.877L148.874 38.4076L148.646 38.9217H148.548L148.318 38.3894V38.9217H148.197V38.2168H148.375L148.601 38.7628L148.842 38.2168H149.004Z"></path>
                </svg>
