<svg xmlns:xlink="http://www.w3.org/1999/xlink" xmlns="http://www.w3.org/2000/svg" viewBox="0 0 1413.7 434" xml:space="preserve" width="1413.7"  height="434" ><path class="transition" fill="#000" d="M313.7 386.7H5.9V5.7h400v213.1l-92.2 167.9zm-188.4-242-49.5-90H53.3v130h27v-69.4l38.2 69.4h13l38.1-69.4.3 69.4h27.4v-130h-22.5l-49.5 90zm161.6 0-49.5-90h-22.5v130h27v-69.4l38.2 69.4h13l38.1-69.4.3 69.4h27.4v-130h-22.5l-49.5 90zm40.1 63.1-33.1 60.3-32.9-60.3h-32l49 89.3-22.3 40.7h31.9l71.4-130h-32zm-98.6 57-.2-3.8h-72.5v25.1h45.6c-4.6 16.2-17.8 26.1-35.3 26.1-22.3 0-39.1-16.9-39.1-39.3 0-22.1 16.7-39.3 38.1-39.3 9.5 0 21.7 2.5 30.4 13h29.8l-.5-1.5c-8.6-23-31.4-37.2-59.7-37.2-36.6 0-65.2 28.6-65.2 65s28.9 65 65.7 65c17.8 0 34-6.7 45.6-18.7 11.4-11.9 17.7-28.2 17.7-46.1 0-1.9-.1-4.3-.3-7.1l-.1-1.2zM451.1 194.8c0-72.6 60.8-134.2 130.5-134.2 75.1 0 131.8 54.3 131.8 133.8 0 72.2-60.8 132.6-130.9 132.6-75.1 0-131.4-53.4-131.4-132.2zm234.9 1.3c0-77.9-46.1-128.9-104.4-128.9-60.4 0-102.8 48.5-102.8 126.5 0 77.1 45.3 126.9 104.4 126.9C644 320.5 686 272.7 686 196.1zM739.5 315.2c9.4-.4 12.6-.4 12.6-4.9V182.6c0-18.4-2.4-22-12.2-23.3l-16.3-2 .8-4.1 49.8-11.4-1.2 66.5h.4c15.9-44.1 33-67.7 55.5-67.7 14.3 0 20.8 9 20.8 18.4 0 8.6-6.1 17.1-15.9 17.1-8.6 0-16.3-6.9-17.5-20-18.4 6.1-31.4 26.1-42.4 63.6v91.4c0 2.9 0 3.7 12.6 4.1l19.5.8 1.2 5.7h-82.4l1.2-5.7 13.5-.8zM877.9 315.2c9.4-.4 12.2-.4 12.2-4.9V183c0-19.2-2-22.4-13.1-23.7l-15.9-2 .8-4.1 50.2-11.4v169.3c0 2.9 1.6 2.9 14.7 4.1l13.1.8 1.2 5.7h-78.7l1.2-5.7 14.3-.8zm1.6-230.9c0-8.2 6.1-18.8 17.9-18.8 11.8 0 16.7 10.6 16.7 18.4s-5.7 17.9-17.1 17.9c-11.7 0-17.5-9.8-17.5-17.5zM941.9 376.4c0-24.5 25.7-42 44.5-51v-.4c-22.8-2.9-37.9-10.6-37.9-26.5 0-19.2 23.3-35.9 43.2-40.4v-.4c-20.8-6.9-38.3-27.3-38.3-53 0-35.9 29.8-63.2 67.3-63.2 15.9 0 29.8 4.5 40.8 12.2l49-5.7-1.6 16.3-38.8-3.7-.4 1.2c9.8 9.4 17.5 23.7 17.5 40 0 34.7-30.6 61.2-68.5 61.2-8.2 0-16.7-1.2-20.4-2.4-14.3 3.3-27.7 13.5-27.7 25.3 0 12.6 9 18.4 31.8 18.4 8.6 0 36.3-.8 46.1-.8 39.2 0 60 17.9 60 44.1 0 43.6-42 75.5-97.9 75.5-41.4-.2-68.7-18.6-68.7-46.7zm150.9-14.3c0-22.8-14.3-36.3-49.8-37.5-13.1 0-22.4.8-48.5 2-13.1 5.3-35.1 22.8-35.1 44.9 0 25.7 27.7 42.8 63.6 42.8 35.6 0 69.8-22.9 69.8-52.2zm-28.9-158.3c0-35.5-15.9-56.7-43.6-56.7-24.9 0-43.2 23.3-43.2 53.8 0 34.3 17.9 56.3 42.8 56.3 25.6 0 44-22 44-53.4zM1139.7 315.2c9.4-.4 12.2-.4 12.2-4.9V183c0-19.2-2-22.4-13.1-23.7l-15.9-2 .8-4.1 50.2-11.4v169.3c0 2.9 1.6 2.9 14.7 4.1l13.1.8 1.2 5.7h-78.7l1.2-5.7 14.3-.8zm1.6-230.9c0-8.2 6.1-18.8 17.9-18.8 11.8 0 16.7 10.6 16.7 18.4s-5.7 17.9-17.1 17.9c-11.8 0-17.5-9.8-17.5-17.5zM1227.6 315.2c9.4-.4 12.6-.4 12.6-4.9V182.6c0-18.4-2.4-22-12.2-23.3l-16.7-2 .4-4.1 50.6-11.4-.8 35.1 1.2.8c17.1-15.1 40.8-36.3 68.1-36.3 13.5 0 24.1 4.1 31.8 11.8 8.6 9.4 13.5 22 13.5 40v117.5c0 2.9.4 3.3 14.7 4.5l13.1.8 1.2 5.7h-77.9l1.2-5.7 13.9-.8c11-.4 12.6-2 12.6-4.9V200.5c0-29.4-14.7-42-37.9-42-20.8 0-40 12.2-55.1 26.5v126.1c0 2.9 2 2.9 15.1 4.1l12.6.8 1.6 5.7h-78.3l1.2-5.7 13.5-.8z"></path></svg>